<?xml version="1.0" encoding="utf-8"?>
<svg id="Layer_1" data-name="Layer 1" viewBox="0 0 982 165" xmlns="http://www.w3.org/2000/svg">
  <defs>
    <style>.cls-1{fill:#3545bc;}.cls-2{fill:#cd385c;}.cls-3{fill:#f9ce48;}.cls-4{fill:#4eac8a;}.cls-5{fill:#4eab8a;}</style>
  </defs>
  <g style="" transform="matrix(0.351834, 0, 0, 0.351834, -77.534805, -4.109225)">
    <path class="cls-1" d="M 234.8 259.53 L 228.93 259.53 L 228.93 232.8 L 234.8 232.8 C 249.159 232.8 260.8 221.159 260.8 206.8 L 260.8 63.52 C 260.827 43.815 276.786 27.844 296.49 27.8 L 324.86 27.8 L 324.86 54.54 L 296.49 54.54 C 291.519 54.54 287.49 58.569 287.49 63.54 L 287.49 206.84 C 287.451 235.924 263.884 259.491 234.8 259.53 Z"/>
    <path class="cls-1" d="M 324.86 464.53 L 296.49 464.53 C 276.774 464.502 260.798 448.526 260.77 428.81 L 260.77 285.51 C 260.77 271.151 249.129 259.51 234.77 259.51 L 228.9 259.51 L 228.9 232.8 L 234.77 232.8 C 263.866 232.833 287.442 256.414 287.47 285.51 L 287.47 428.81 C 287.47 433.781 291.499 437.81 296.47 437.81 L 324.84 437.81 Z"/>
    <path class="cls-1" d="M 726.58 259.53 L 720.71 259.53 C 691.611 259.502 668.028 235.919 668 206.82 L 668 63.52 C 668 58.549 663.971 54.52 659 54.52 L 630.64 54.52 L 630.64 27.8 L 659 27.8 C 678.715 27.828 694.688 43.805 694.71 63.52 L 694.71 206.82 C 694.71 221.179 706.351 232.82 720.71 232.82 L 726.58 232.82 Z"/>
    <path class="cls-1" d="M 659 464.53 L 630.64 464.53 L 630.64 437.79 L 659 437.79 C 663.971 437.79 668 433.761 668 428.79 L 668 285.51 C 668.028 256.411 691.611 232.828 720.71 232.8 L 726.58 232.8 L 726.58 259.53 L 720.71 259.53 C 706.351 259.53 694.71 271.171 694.71 285.53 L 694.71 428.83 C 694.677 448.537 678.707 464.502 659 464.53 Z"/>
    <rect class="cls-2" x="523.47" y="119.48" width="87.06" height="26.73"/>
    <rect class="cls-1" x="442.9" y="119.48" width="46.73" height="26.73"/>
    <rect class="cls-2" x="344.97" y="119.48" width="63.21" height="26.73"/>
    <rect class="cls-3" x="446.89" y="232.8" width="163.64" height="26.73"/>
    <rect class="cls-2" x="344.97" y="232.8" width="51.8" height="26.73"/>
    <rect class="cls-4" x="536" y="346.11" width="74.53" height="26.73"/>
    <rect class="cls-3" x="344.97" y="346.11" width="139.65" height="26.73"/>
  </g>
  <g transform="matrix(1, 0, 0, 1, 0, -25)" style="">
    <path class="cls-1" d="M 428.017 166.967 L 401.795 166.967 L 396.627 179.072 L 386.59 179.072 L 410.185 126.63 L 419.776 126.63 L 443.446 179.072 L 433.259 179.072 Z M 424.795 159.322 L 414.906 136.407 L 405.092 159.332 Z"/>
    <path class="cls-1" d="M 462.134 178.122 C 458.867 177.24 455.819 175.686 453.186 173.56 L 456.556 165.99 C 458.937 167.814 461.611 169.222 464.462 170.152 C 467.493 171.221 470.681 171.775 473.895 171.791 C 477.787 171.791 480.701 171.167 482.619 169.928 C 484.404 168.927 485.508 167.04 485.506 164.993 C 485.544 163.573 484.951 162.209 483.886 161.269 C 482.7 160.231 481.311 159.454 479.807 158.987 C 478.162 158.441 475.915 157.821 473.066 157.125 C 469.774 156.384 466.533 155.432 463.363 154.276 C 460.907 153.338 458.721 151.805 457.003 149.815 C 455.228 147.792 454.34 145.057 454.34 141.612 C 454.313 138.803 455.135 136.051 456.696 133.716 C 458.471 131.177 460.946 129.21 463.819 128.054 C 467.512 126.559 471.476 125.846 475.459 125.959 C 478.632 125.939 481.795 126.321 484.873 127.095 C 487.721 127.781 490.433 128.945 492.89 130.541 L 489.817 138.102 C 487.565 136.769 485.148 135.736 482.629 135.029 C 480.263 134.355 477.817 134.004 475.356 133.986 C 471.511 133.986 468.652 134.628 466.781 135.932 C 465.014 137.052 463.956 139.008 463.987 141.1 C 463.943 142.503 464.535 143.851 465.598 144.769 C 466.795 145.786 468.186 146.553 469.686 147.022 C 471.337 147.574 473.584 148.195 476.427 148.884 C 479.687 149.584 482.892 150.518 486.018 151.678 C 488.479 152.627 490.677 154.153 492.424 156.129 C 494.29 158.4 495.239 161.285 495.088 164.22 C 495.115 167.022 494.29 169.766 492.722 172.089 C 490.924 174.603 488.437 176.542 485.562 177.675 C 481.864 179.197 477.892 179.939 473.895 179.854 C 469.91 179.868 465.945 179.285 462.134 178.122 Z"/>
    <path class="cls-1" d="M 550.314 176.372 C 546.148 174.145 542.675 170.814 540.276 166.744 C 535.409 158.145 535.409 147.623 540.276 139.023 C 542.689 134.951 546.174 131.621 550.351 129.395 C 554.762 127.039 559.7 125.841 564.7 125.913 C 568.731 125.861 572.732 126.624 576.461 128.157 C 579.923 129.599 583 131.831 585.447 134.675 L 579.152 140.597 C 575.611 136.616 570.512 134.373 565.185 134.451 C 561.815 134.399 558.487 135.21 555.519 136.807 C 552.734 138.318 550.425 140.575 548.852 143.325 C 545.662 149.269 545.662 156.414 548.852 162.358 C 550.422 165.111 552.731 167.369 555.519 168.876 C 558.467 170.497 561.783 171.333 565.147 171.306 C 570.488 171.381 575.593 169.111 579.115 165.096 L 585.409 171.083 C 582.956 173.934 579.864 176.167 576.386 177.601 C 572.644 179.135 568.633 179.901 564.589 179.854 C 559.614 179.912 554.704 178.715 550.314 176.372 Z"/>
    <path class="cls-1" d="M 611.258 176.372 C 607.062 174.142 603.563 170.797 601.146 166.707 C 596.241 158.144 596.241 147.623 601.146 139.061 C 603.558 134.966 607.059 131.621 611.258 129.395 C 620.336 124.752 631.093 124.752 640.17 129.395 C 644.361 131.62 647.861 134.95 650.292 139.023 C 655.183 147.616 655.183 158.151 650.292 166.744 C 647.857 170.814 644.357 174.143 640.17 176.372 C 631.093 181.016 620.336 181.016 611.258 176.372 Z M 635.151 168.923 C 637.919 167.38 640.201 165.097 641.744 162.33 C 644.948 156.416 644.948 149.286 641.744 143.372 C 640.196 140.609 637.914 138.327 635.151 136.779 C 629.252 133.639 622.177 133.639 616.277 136.779 C 613.512 138.325 611.23 140.607 609.684 143.372 C 606.48 149.286 606.48 156.416 609.684 162.33 C 611.225 165.099 613.508 167.383 616.277 168.923 C 622.177 172.063 629.252 172.063 635.151 168.923 Z"/>
    <path class="cls-1" d="M 671.792 126.658 L 694.717 126.658 C 699.87 126.565 704.973 127.681 709.616 129.917 C 713.803 131.953 717.314 135.153 719.728 139.135 C 724.52 147.675 724.52 158.092 719.728 166.632 C 717.313 170.61 713.801 173.807 709.616 175.841 C 704.974 178.081 699.87 179.198 694.717 179.1 L 671.792 179.1 Z M 694.261 170.859 C 697.771 170.935 701.248 170.179 704.411 168.653 C 707.236 167.274 709.583 165.082 711.152 162.358 C 714.306 156.432 714.306 149.326 711.152 143.4 C 709.582 140.679 707.235 138.49 704.411 137.114 C 701.249 135.586 697.771 134.826 694.261 134.898 L 681.541 134.898 L 681.541 170.859 Z"/>
    <path class="cls-1" d="M 780.495 170.934 L 780.495 179.1 L 741.135 179.1 L 741.135 126.658 L 779.424 126.658 L 779.424 134.824 L 750.894 134.824 L 750.894 148.456 L 776.221 148.456 L 776.221 156.473 L 750.894 156.473 L 750.894 170.934 Z"/>
  </g>
  <g>
    <path class="cls-5" d="M 241.74 68.936 L 241.74 80.417 L 186.448 80.417 L 186.448 6.697 L 240.259 6.697 L 240.259 18.15 L 200.136 18.15 L 200.136 37.314 L 235.734 37.314 L 235.734 48.581 L 200.136 48.581 L 200.136 68.908 Z"/>
    <path class="cls-5" d="M 333.886 6.697 L 301.771 80.417 L 288.288 80.417 L 256.061 6.697 L 270.903 6.697 L 295.439 63.563 L 320.189 6.697 Z"/>
    <path class="cls-5" d="M 407.503 68.936 L 407.503 80.417 L 352.212 80.417 L 352.212 6.697 L 406.032 6.697 L 406.032 18.15 L 365.881 18.15 L 365.881 37.314 L 401.469 37.314 L 401.469 48.581 L 365.881 48.581 L 365.881 68.908 Z"/>
    <path class="cls-5" d="M 481.539 80.417 L 466.445 58.823 C 465.502 58.916 464.553 58.954 463.605 58.935 L 447.003 58.935 L 447.003 80.417 L 433.306 80.417 L 433.306 6.697 L 463.652 6.697 C 483.029 6.697 495.032 16.595 495.032 32.919 C 495.032 44.092 489.342 52.296 479.342 56.197 L 496.298 80.407 Z M 463.009 18.281 L 447.003 18.281 L 447.003 47.668 L 463.009 47.668 C 475.012 47.668 481.223 42.184 481.223 32.919 C 481.223 23.654 475.012 18.281 463.009 18.281 Z"/>
    <path class="cls-5" d="M 551.581 54.4 L 551.581 80.417 L 537.883 80.417 L 537.883 54.614 L 508.924 6.697 L 523.562 6.697 L 545.156 42.612 L 566.954 6.697 L 580.428 6.697 Z"/>
    <path class="cls-5" d="M 613.819 18.281 L 589.357 18.281 L 589.357 6.697 L 651.912 6.697 L 651.912 18.281 L 627.535 18.281 L 627.535 80.417 L 613.847 80.417 Z"/>
    <path class="cls-5" d="M 738.342 6.697 L 738.342 80.417 L 724.607 80.417 L 724.607 48.823 L 686.486 48.823 L 686.486 80.417 L 672.798 80.417 L 672.798 6.697 L 686.486 6.697 L 686.486 37.137 L 724.607 37.137 L 724.607 6.697 Z"/>
    <path class="cls-5" d="M 768.632 6.697 L 782.32 6.697 L 782.32 80.417 L 768.632 80.417 Z"/>
    <path class="cls-5" d="M 878.266 6.697 L 878.266 80.417 L 866.999 80.417 L 826.345 30.498 L 826.345 80.417 L 812.759 80.417 L 812.759 6.697 L 824.008 6.697 L 864.662 56.616 L 864.662 6.697 Z"/>
    <path class="cls-5" d="M 958.932 42.714 L 971.884 42.714 L 971.884 72.092 C 964.202 78.312 953.457 81.469 943.018 81.469 C 920.159 81.469 903.314 65.565 903.314 43.562 C 903.314 21.558 920.159 5.645 943.223 5.645 C 955.542 5.645 965.869 9.751 972.815 17.648 L 964.183 26.028 C 958.877 20.516 951.506 17.476 943.856 17.648 C 928.166 17.648 917.104 28.291 917.104 43.562 C 917.104 58.507 928.166 69.466 943.754 69.466 C 949.064 69.566 954.304 68.245 958.932 65.639 Z"/>
  </g>
</svg>