<?xml version="1.0" standalone="no"?>
<!DOCTYPE svg PUBLIC "-//W3C//DTD SVG 20010904//EN"
 "http://www.w3.org/TR/2001/REC-SVG-20010904/DTD/svg10.dtd">
<svg version="1.0" xmlns="http://www.w3.org/2000/svg"
 width="996.000000pt" height="996.000000pt" viewBox="0 0 996.000000 996.000000"
 preserveAspectRatio="xMidYMid meet">
<metadata>
Created by potrace 1.11, written by Peter Selinger 2001-2013
</metadata>
<g transform="translate(0.000000,996.000000) scale(0.100000,-0.100000)"
fill="#000000" stroke="none">
<path d="M1259 9346 c-2 -2 -20 -7 -39 -10 -19 -3 -45 -8 -56 -10 -33 -7 -174
-67 -174 -74 0 -4 -14 -13 -31 -21 -49 -22 -171 -149 -217 -226 -53 -91 -80
-166 -98 -271 -4 -21 -8 -716 -9 -1544 -1 -828 -5 -1515 -9 -1527 -3 -13 -8
-33 -11 -45 -21 -99 -147 -253 -246 -304 -44 -22 -157 -66 -166 -64 -2 0 -48
0 -103 0 l-100 0 0 -270 0 -270 98 -1 c53 0 105 -2 115 -4 48 -9 127 -39 127
-48 0 -6 3 -7 6 -4 8 8 64 -24 64 -35 0 -4 6 -8 12 -8 24 0 125 -119 156 -182
60 -125 56 -15 58 -1643 0 -825 4 -1522 8 -1550 25 -176 115 -344 239 -447 29
-24 53 -46 55 -50 2 -5 10 -8 17 -8 7 0 15 -4 17 -8 3 -8 96 -55 110 -56 3 -1
10 -4 14 -8 4 -5 16 -8 26 -8 10 0 18 -4 18 -9 0 -5 8 -8 17 -7 9 2 36 -3 60
-10 31 -9 134 -13 373 -14 l330 -1 1 88 c1 278 -1 436 -6 442 -4 3 -140 6
-304 6 -253 1 -302 3 -332 17 -48 23 -86 67 -97 113 -6 25 -10 561 -10 1470 0
787 -1 1464 -2 1505 -5 128 -39 262 -101 395 -37 81 -123 205 -188 274 l-61
64 43 41 c55 54 83 88 132 161 37 54 96 167 95 180 0 3 6 18 14 33 22 44 50
157 62 257 4 28 7 721 8 1540 1 1633 -3 1516 58 1572 50 46 75 49 386 48 162
0 296 3 299 8 4 6 5 192 3 460 l0 67 -328 0 c-181 0 -331 -2 -333 -4z"/>
<path d="M8038 9229 c-2 -66 -1 -187 2 -267 l5 -147 305 0 c259 -1 309 -3 335
-17 39 -21 79 -66 92 -104 7 -19 10 -534 10 -1509 1 -814 3 -1502 7 -1530 15
-124 40 -213 92 -331 25 -57 101 -180 128 -207 10 -9 15 -17 13 -17 -3 0 21
-27 53 -60 l59 -60 -60 -62 c-67 -69 -157 -198 -188 -271 -11 -26 -20 -50 -20
-53 0 -3 -7 -16 -15 -30 -9 -13 -14 -24 -11 -24 3 0 1 -8 -4 -18 -6 -11 -12
-30 -15 -43 -3 -13 -8 -35 -11 -49 -8 -35 -14 -67 -21 -120 -3 -25 -6 -716 -6
-1537 l-1 -1492 -21 -38 c-12 -20 -40 -51 -64 -67 l-42 -30 -308 -1 -307 0 -5
-135 c-3 -74 -4 -195 -2 -268 l3 -132 328 0 c263 1 339 4 387 17 32 8 64 16
69 18 6 1 24 7 40 14 74 30 105 45 105 53 0 4 5 8 11 8 32 0 172 134 224 214
41 64 79 148 90 196 1 3 7 32 15 65 10 48 13 355 15 1575 2 1697 -4 1555 75
1690 65 110 169 191 298 230 38 12 73 20 78 19 5 -1 48 -1 97 0 l87 1 0 270 0
270 -97 0 c-116 0 -153 9 -252 57 -131 64 -233 189 -273 333 -9 35 -13 383
-14 1555 -1 1682 3 1588 -69 1740 -59 126 -136 215 -257 297 -77 53 -121 72
-243 102 -46 11 -134 15 -387 16 l-327 0 -3 -121z"/>
<path d="M2330 7510 c-9 -6 -9 -519 0 -525 5 -3 98 -6 150 -4 8 0 51 0 95 -1
44 -1 85 0 90 1 6 1 13 1 16 1 6 -1 250 -2 279 -1 86 2 514 0 527 -2 4 -1 29
-1 54 0 l45 1 1 265 c0 146 -2 266 -6 266 -20 4 -1244 3 -1251 -1z"/>
<path d="M4285 7365 c0 -82 -3 -158 -7 -167 -5 -10 -5 -18 -1 -18 5 0 8 -45 7
-99 l-2 -99 140 -1 c78 -1 145 -4 149 -6 4 -3 10 -2 12 2 3 5 67 6 142 3 75
-3 142 -2 147 1 6 4 21 4 34 0 13 -3 88 -5 167 -3 l144 3 0 153 c0 85 3 159 7
165 4 6 4 11 -1 11 -4 0 -8 46 -8 102 l0 103 -466 0 -465 0 1 -150z"/>
<path d="M5895 7250 l0 -265 303 -5 c167 -3 306 -2 309 3 2 4 8 5 12 3 6 -4
188 -7 281 -5 12 0 424 0 480 0 8 0 51 0 95 -1 44 -1 85 -1 90 0 6 1 46 1 91
0 l81 -1 -2 258 c-1 142 -2 263 -3 268 -1 7 -298 10 -870 10 l-867 0 0 -265z"/>
<path d="M2323 4980 l0 -267 518 0 517 0 0 33 c0 18 2 36 5 41 2 4 1 17 -3 28
-4 11 -4 32 1 48 4 15 4 27 -1 27 -5 0 -5 13 0 30 5 17 6 30 2 30 -4 0 -7 14
-7 30 0 17 3 30 7 30 4 0 4 10 -1 23 -5 13 -5 30 -1 38 5 8 5 21 1 28 -5 7 -5
30 -1 51 4 22 5 42 1 45 -3 3 -6 16 -6 28 l0 22 -516 1 -516 1 0 -267z"/>
<path d="M4363 4980 l0 -267 1637 0 1637 0 -1 266 -1 266 -1636 1 -1636 1 0
-267z"/>
<path d="M3267 2984 c-2 -3 -215 -6 -473 -7 l-469 -2 -1 -262 c-1 -145 1 -264
5 -264 28 -6 2786 -2 2794 3 7 4 8 8 2 8 -6 0 -10 35 -10 85 0 47 4 85 8 85 5
0 5 5 1 12 -11 17 -11 138 -1 138 5 0 5 6 1 12 -5 7 -8 51 -9 98 l0 85 -643 5
c-354 3 -646 2 -648 -1 -2 -4 -20 -3 -39 1 -19 4 -37 4 -40 0 -3 -4 -21 -4
-40 0 -19 4 -37 4 -40 0 -3 -4 -21 -4 -40 0 -19 4 -37 4 -40 0 -3 -4 -21 -4
-40 0 -19 4 -37 4 -40 0 -3 -4 -21 -4 -40 0 -19 4 -37 4 -40 0 -3 -4 -21 -4
-40 0 -19 4 -37 4 -40 0 -3 -4 -20 -4 -39 0 -19 4 -37 6 -39 4z"/>
<path d="M6466 2983 c-2 -2 -75 -5 -163 -6 l-158 -2 0 -262 c0 -225 2 -262 15
-265 8 -2 344 -4 745 -3 l730 0 0 265 0 265 -303 5 c-167 3 -306 2 -308 -1 -2
-4 -20 -3 -39 1 -19 4 -37 4 -40 0 -3 -4 -21 -4 -40 0 -19 4 -37 4 -40 0 -3
-4 -21 -4 -40 0 -19 4 -37 4 -40 0 -3 -4 -21 -4 -40 0 -19 4 -37 4 -40 0 -3
-4 -21 -4 -40 0 -19 4 -37 4 -40 0 -3 -4 -21 -4 -40 0 -19 4 -37 4 -40 0 -3
-4 -20 -4 -39 0 -19 4 -37 6 -40 3z"/>
</g>
</svg>
